<?xml version="1.0" encoding="UTF-8" standalone="no"?>
<svg
   width="357.81567mm"
   height="341.77768mm"
   viewBox="0 0 357.81567 341.77768"
   version="1.1"
   xmlns="http://www.w3.org/2000/svg"
  <defs
     />
  <g
     transform="translate(21.431251,6.6145835)">
    <g
       style="fill="currentColor";fill-opacity:1;stroke:none;stroke-opacity:0.999984"
       transform="translate(-41.997623,-31.704394)">
      <g
         style="fill="currentColor";fill-opacity:1;stroke:none">
        <path
           style="baseline-shift:baseline;display:inline;overflow:visible;opacity:1;fill="currentColor";fill-opacity:1;stroke:none;stroke-width:2.4;stroke-linecap:round;stroke-dasharray:none;stroke-opacity:0.999984;enable-background:accumulate;stop-color:#000000;stop-opacity:1"
           d="m 33.289062,145.93945 a 12,12 0 0 0 -12.722656,11.23242 c 0,0 -0.0079,2.09006 0.21875,3.27735 0.226642,1.18728 0.625728,2.43009 1.19336,3.64453 1.135263,2.42888 2.897531,4.70502 5.255859,6.83984 4.716656,4.26965 11.81554,8.28604 24.472656,12.70118 27.582004,9.6213 69.663249,22.21622 94.765629,29.63671 -5.92967,5.9047 -11.94082,13.35715 -17.33789,23.64063 a 12,12 0 0 0 5.04882,16.20117 12,12 0 0 0 16.20313,-5.04883 c 8.7039,-16.58425 16.99157,-21.61714 28.25976,-30.60937 L 196.75977,203 174.50195,196.54883 c 0,0 -2.99357,-0.86617 -8.11718,-2.36914 -20.70755,-6.07437 -76.254278,-22.55922 -106.773442,-33.20508 -10.845105,-3.78306 -15.303354,-6.95937 -16.269531,-7.83399 -0.483089,-0.4373 -0.09418,-0.22115 0.378906,0.79102 0.236545,0.50609 0.482757,1.2008 0.638672,2.01758 0.155915,0.81678 0.160156,2.71289 0.160156,2.71289 A 12,12 0 0 0 33.289062,145.93945 Z m 156.107418,66.12696 -13.01367,19.17382 c 0,0 -1.74902,2.57793 -4.76172,6.98633 -12.17602,17.81695 -45.01845,65.55141 -64.57421,91.28711 -6.94922,9.14528 -11.348151,12.40607 -12.478521,13.05469 -0.565185,0.32431 -0.239681,0.02 0.869141,-0.11719 0.554411,-0.0686 1.292207,-0.0885 2.117187,0.0156 0.824981,0.10411 2.628903,0.6875 2.628903,0.6875 a 12,12 0 0 0 -15.570309,6.75 12,12 0 0 0 6.75,15.57031 c 0,0 1.986337,0.65335 3.185547,0.80469 1.199211,0.15134 2.503577,0.1548 3.833984,-0.01 2.660818,-0.32914 5.369808,-1.30156 8.128908,-2.88476 5.5182,-3.16642 11.53423,-8.67633 19.64453,-19.34961 17.67372,-23.25891 42.65438,-59.38803 57.46875,-80.96875 3.7833,7.4639 9.01483,15.48254 17.12695,23.79296 a 12,12 0 0 0 16.96875,0.20508 12,12 0 0 0 0.20508,-16.96875 c -13.08291,-13.40272 -15.30886,-22.84049 -20.37891,-36.33593 z m 79.51563,-0.006 a 12,12 0 0 0 -9.16406,0.60937 c -16.78959,8.30092 -26.45381,7.50077 -40.85547,8.15235 l -23.14844,1.04882 14.21484,18.30078 c 0,0 1.91018,2.45996 5.17188,6.6875 13.18231,17.08584 48.43218,63.07361 66.86523,89.625 6.55026,9.43515 8.29103,14.62492 8.5586,15.9004 0.13378,0.63773 -0.054,0.23365 0.1582,-0.86329 0.1061,-0.54846 0.31402,-1.25538 0.66797,-2.00781 0.35395,-0.75243 1.4668,-2.28906 1.4668,-2.28906 a 12,12 0 0 0 1.60742,16.89453 12,12 0 0 0 16.89453,-1.60937 c 0,0 1.23549,-1.68555 1.75,-2.7793 0.51451,-1.09375 0.92117,-2.33424 1.17578,-3.65039 0.50921,-2.6323 0.42069,-5.50975 -0.23242,-8.62305 -1.30622,-6.2266 -4.68736,-13.64857 -12.33203,-24.66016 -16.65875,-23.99563 -43.30129,-58.91743 -59.24805,-79.67578 8.26789,-1.29162 17.51108,-3.79031 27.92188,-8.9375 a 12,12 0 0 0 5.43945,-16.07422 12,12 0 0 0 -6.91211,-6.04882 z m -40.71484,-70.51953 a 12,12 0 0 0 -10.14063,13.60742 c 2.70637,18.53297 -1.03846,27.47686 -4.86914,41.375 L 207.0293,218.86328 228.82812,211 c 0,0 2.93047,-1.05785 7.95899,-2.85352 20.32315,-7.25731 74.95043,-26.57045 105.89844,-35.89648 10.99749,-3.31404 16.4738,-3.36623 17.76953,-3.22656 0.64786,0.0698 0.20424,0.12477 -0.77344,-0.41602 -0.48884,-0.27039 -1.0969,-0.68867 -1.70312,-1.25781 -0.60623,-0.56914 -1.72461,-2.09961 -1.72461,-2.09961 a 12,12 0 0 0 16.56445,3.69141 12,12 0 0 0 3.69141,-16.56446 c 0,0 -1.2223,-1.69612 -2.10352,-2.52343 -0.88122,-0.82732 -1.93437,-1.59724 -3.10742,-2.2461 -2.34611,-1.29772 -5.11069,-2.10439 -8.27344,-2.44531 -6.3255,-0.68184 -14.4287,0.24162 -27.26367,4.10937 -27.96985,8.42858 -69.41619,22.97512 -94.08594,31.72657 1.32656,-8.26247 1.80709,-17.82633 0.12891,-29.31836 A 12,12 0 0 0 228.19727,141.54102 Z M 196.79687,25.46875 c 0,0 -1.99164,0.640218 -3.05078,1.222656 -1.05914,0.582438 -2.1161,1.344634 -3.0957,2.259766 -1.95919,1.830264 -3.57928,4.210679 -4.88086,7.113281 -2.60315,5.805204 -4.23176,13.797236 -4.51953,27.199219 -0.6271,29.205265 0.39985,73.118358 1.09961,99.285158 -7.44796,-3.81468 -16.39414,-7.22655 -27.8418,-9.18164 a 12,12 0 0 0 -13.84765,9.80859 12,12 0 0 0 9.80859,13.84766 c 18.46223,3.15308 25.80963,9.48 37.84375,17.41797 l 19.34375,12.75976 -0.74219,-23.16015 c 0,0 -0.10003,-3.11582 -0.2539,-8.45313 -0.62193,-21.57108 -2.10794,-79.493372 -1.41407,-111.808593 0.24657,-11.48333 1.88864,-16.705383 2.42188,-17.894531 0.26662,-0.594575 0.18167,-0.157246 -0.63477,0.605468 -0.40822,0.381357 -0.99403,0.829789 -1.72265,1.230469 -0.72862,0.400681 -2.53125,0.990235 -2.53125,0.990234 a 12,12 0 0 0 8.63086,-14.611328 12,12 0 0 0 -14.61329,-8.630859 z" />
      </g>
    </g>
  </g>
</svg>
